<svg width="32" height="32" viewBox="0 0 32 32" fill="none" xmlns="http://www.w3.org/2000/svg">
<path d="M31.862 10.9581C31.942 9.37411 30.87 7.96011 29.324 7.61011C25.492 6.74011 21.478 7.82011 18.602 10.4961L18.11 10.9541C17.536 11.4881 16.78 11.7841 15.996 11.7841C15.212 11.7841 14.456 11.4861 13.882 10.9521L13.4 10.5041C10.522 7.82211 6.50398 6.74011 2.66998 7.61211H2.66798C1.12398 7.96211 0.0539777 9.37011 0.127978 10.9501V10.9581C-0.266022 12.5181 0.343978 18.2781 0.687978 19.1841C1.38198 22.8441 4.37198 25.5961 7.95798 25.5961C9.74798 25.5961 11.37 24.8821 12.652 23.7381L13.434 23.0701C14.876 21.8361 16.996 21.8201 18.458 23.0301L19.628 24.0001V23.9941C20.862 24.9881 22.378 25.5961 24.034 25.5961C27.618 25.5961 30.61 22.8441 31.304 19.1841C31.648 18.2781 32.28 12.5421 31.862 10.9581ZM12.464 17.1041C11.61 18.0701 10.288 18.6901 8.79998 18.6901C7.31198 18.6901 5.98998 18.0701 5.13598 17.1061C4.68798 16.6001 4.68798 15.8041 5.13598 15.2961C5.98998 14.3301 7.31198 13.7101 8.79998 13.7101C10.288 13.7101 11.61 14.3301 12.464 15.2941C12.912 15.8021 12.912 16.5981 12.464 17.1041ZM26.864 17.1041C26.01 18.0681 24.688 18.6881 23.2 18.6881C21.712 18.6881 20.39 18.0681 19.536 17.1041C19.088 16.5981 19.088 15.8021 19.536 15.2941C20.39 14.3301 21.712 13.7101 23.2 13.7101C24.688 13.7101 26.01 14.3301 26.864 15.2941C27.312 15.8021 27.312 16.5981 26.864 17.1041Z" fill="black"/>
</svg>
